<svg xmlns="http://www.w3.org/2000/svg" viewBox="0 0 656.49 618.15"><defs><style>.cls-1{isolation:isolate;}.cls-2{fill:#3abff0;}.cls-3{fill:#ff505a;}.cls-4{fill:#ffe1c2;}.cls-5{fill:#292c38;}.cls-6{fill:#fff;}.cls-7{fill:#ffc9bd;mix-blend-mode:multiply;}.cls-8{fill:none;stroke:#e95a0c;stroke-linecap:round;stroke-linejoin:round;stroke-width:9.98px;}</style></defs><title>fiona-cirlce</title><g class="cls-1"><g id="Layer_1" data-name="Layer 1"><circle class="cls-2" cx="330.21" cy="309.08" r="309.08"/><path class="cls-3" d="M569.6,498.87A284.71,284.71,0,0,1,330.34,629C221.56,629,127,568,79,478.4" transform="translate(0 -11)"/><path class="cls-3" d="M554.56,513.85V295.22a228.43,228.43,0,0,0-2.86-35.9c10.61,7.69,25.17,19.87,25.17,19.87C563.79,178.42,530,167.65,530,167.65c6.91-12.28,30.77-8.46,30.77-8.46-48.47-78.46-95.39-66.93-95.39-66.93l4.2-43.07S460.19,73,445.33,83.8c-4.21-20.32-24.62-29.23-24.62-29.23s9.23,8.82,0,29.23C356.86,16.11,246.09,53,246.09,53,256.09,56.11,272,76,272,76h0s-63.59-17.53-132,50.93c0,0,33.63-9.2,41.43-3.83,0,0-66.05,21.15-99.9,113.26,0,0,18.82-24.6,39-30.76a225.38,225.38,0,0,0-18.5,89.67V511" transform="translate(0 -11)"/><path class="cls-4" d="M422,179.19h-.33a83.76,83.76,0,0,1,2.12,28.46C408.41,173,340,161.09,340,161.09c40,8.82,40,56.24,40,56.24-20-36.48-101.54-29.52-101.54-29.52,4.62,12.46,42.31,21.38,42.31,21.38-61.06,2.95-86.76-15.51-97.38-29.2a96,96,0,0,0-83.78,95.22v50.27a96,96,0,0,0,96,96H422a96,96,0,0,0,96-96V275.21A96,96,0,0,0,422,179.19Z" transform="translate(0 -11)"/><path class="cls-3" d="M106.29,352.27S68.37,372.53,39.65,447.4c0,0,18.46-11.28,28.72-9.23,0,0-27.69,10.26-58.46,127.18l28.72,18.46S73.44,531.52,106.29,511Z" transform="translate(0 -11)"/><path class="cls-5" d="M165.33,300.5H492.26a0,0,0,0,1,0,0v2.72A78.82,78.82,0,0,1,413.44,382H244.15a78.82,78.82,0,0,1-78.82-78.82V300.5A0,0,0,0,1,165.33,300.5Z"/><circle class="cls-5" cx="478.41" cy="243.53" r="18.22"/><circle class="cls-6" cx="481.85" cy="240.09" r="6.07"/><circle class="cls-5" cx="200" cy="231" r="24.67"/><circle class="cls-6" cx="207.31" cy="223.69" r="6.07"/><path class="cls-6" d="M460.47,315.06l0,2.81a10.56,10.56,0,1,0,21.11.22l0-3Z" transform="translate(0 -11)"/><path class="cls-6" d="M424.91,315.06l0,2.81a10.56,10.56,0,1,0,21.11.22l0-3Z" transform="translate(0 -11)"/><path class="cls-6" d="M389.36,315.06l0,2.81a10.56,10.56,0,1,0,21.11.22l0-3Z" transform="translate(0 -11)"/><path class="cls-6" d="M353.8,315.06l0,2.81a10.56,10.56,0,1,0,21.11.22l0-3Z" transform="translate(0 -11)"/><path class="cls-6" d="M318.25,315.06l0,2.81a10.56,10.56,0,1,0,21.11.22l0-3Z" transform="translate(0 -11)"/><path class="cls-6" d="M282.69,315.06l0,2.81a10.56,10.56,0,1,0,21.11.22l0-3Z" transform="translate(0 -11)"/><path class="cls-6" d="M247.14,315.06l0,2.81a10.56,10.56,0,1,0,21.11.22l0-3Z" transform="translate(0 -11)"/><path class="cls-6" d="M211.58,315.06l0,2.81a10.56,10.56,0,1,0,21.11.22l0-3Z" transform="translate(0 -11)"/><path class="cls-6" d="M176,315.06l0,2.81a10.56,10.56,0,1,0,21.11.22l0-3Z" transform="translate(0 -11)"/><path class="cls-6" d="M286,389.48l0-2.81a10.56,10.56,0,1,0-21.11-.22l0,3Z" transform="translate(0 -11)"/><path class="cls-6" d="M321.56,389.48l0-2.81a10.56,10.56,0,1,0-21.11-.22l0,3Z" transform="translate(0 -11)"/><path class="cls-6" d="M357.12,389.48l0-2.81a10.56,10.56,0,1,0-21.11-.22l0,3Z" transform="translate(0 -11)"/><path class="cls-6" d="M392.67,389.48l0-2.81a10.56,10.56,0,1,0-21.11-.22l0,3Z" transform="translate(0 -11)"/><path class="cls-7" d="M334.55,472.9c63.24,0,120.51,16.16,162,42.29-26.51-40-89.07-68.14-162-68.14s-135.53,28.12-162,68.14C214,489.06,271.3,472.9,334.55,472.9Z" transform="translate(0 -11)"/><path class="cls-3" d="M550.2,352.27s37.92,20.26,66.64,95.13c0,0-18.46-11.28-28.72-9.23,0,0,27.69,10.26,58.46,127.18l-28.72,18.46S583.05,531.52,550.2,511Z" transform="translate(0 -11)"/><path class="cls-4" d="M647.46,604.47h0A17,17,0,0,0,654.75,582l-8.17-16.64-28.72,18.46,6.39,13.1A17,17,0,0,0,647.46,604.47Z" transform="translate(0 -11)"/><path class="cls-8" d="M165.33,300.5H492.26a0,0,0,0,1,0,0v2.72A78.82,78.82,0,0,1,413.44,382H244.15a78.82,78.82,0,0,1-78.82-78.82V300.5A0,0,0,0,1,165.33,300.5Z"/><path class="cls-4" d="M9,604.47H9A17,17,0,0,1,1.74,582l8.17-16.64,28.72,18.46-6.39,13.1A17,17,0,0,1,9,604.47Z" transform="translate(0 -11)"/></g></g></svg>