<svg id="Layer_1" data-name="Layer 1" xmlns="http://www.w3.org/2000/svg" viewBox="0 0 643.19 643.19"><defs><style>.cls-1{fill:#3abff0;}.cls-2{fill:#f07800;}.cls-3{fill:#ffb400;}.cls-4{fill:#ffa000;}.cls-5{fill:#fff;}.cls-6{fill:#292c38;}.cls-7{fill:#06f;}.cls-8{fill:#003ce6;}</style></defs><title>toby-circle</title><circle class="cls-1" cx="321.6" cy="321.6" r="321.6"/><path class="cls-2" d="M118.18,567.71l2.87-23c-.14,0-14.43-2.07-28.91-13.62-20.35-16.23-30.68-42.55-30.68-78.23,0-41.39,14.91-70.68,44.31-87.06a109.31,109.31,0,0,1,46.72-13.05v-28.9a137.31,137.31,0,0,0-59.63,16.07c-27.28,14.82-59.74,46.16-60.27,111.35A322.53,322.53,0,0,0,118.18,567.71Z" transform="translate(-6.4 -2.4)"/><path class="cls-2" d="M596.34,454.45c0,30.62-8.64,53.36-25.68,67.57a58.57,58.57,0,0,1-26.1,12.65l.12,0,3,24.17a322.2,322.2,0,0,0,77.38-111.49c-2.26-54.95-30.49-81.86-54.34-94.81A124,124,0,0,0,516.89,338v28.89a95.82,95.82,0,0,1,40.05,11C583.09,392.11,596.34,417.86,596.34,454.45Z" transform="translate(-6.4 -2.4)"/><path class="cls-3" d="M130.85,578.08a321.55,321.55,0,0,0,404.47-8.25c2.06-61.56,3.1-140.09.19-185.36Q530.28,303,525,221.61c-1.76-27.44-3.62-55.32-13-81.1s-27.5-49.64-52.88-59c-15.07-5.59-31.48-5.75-47.52-5.85-76.72-.47-154.47-.82-228.69,18.92-7.36,2-14.75,4.14-21.33,8-9.93,5.87-17.45,15.32-22.91,25.6-15,28.17-15.25,61.71-15.19,93.72C123.74,340.11,128.88,463.14,130.85,578.08Z" transform="translate(-6.4 -2.4)"/><path class="cls-2" d="M574.41,530.64c-4.16-10.33-11.5-18.21-19.89-22a12.83,12.83,0,0,0-18,11.49l-1.18,48.82c0,.29,0,.58,0,.88A324.58,324.58,0,0,0,574.41,530.64Z" transform="translate(-6.4 -2.4)"/><path class="cls-4" d="M366,621c.75-7.1,1.54-14.21,2.25-21.32.42-4.26,1.82-5.91,4.85-5.51,3.67.49,5.66,3,5.14,7-.78,5.87-1.75,11.71-2.6,17.57a20,20,0,0,0-.43,4.85c.24,2.47,0,4.59-2.66,5.45-2.16.7-5.32-1.22-6.28-3.84a23,23,0,0,1-.72-4.18Z" transform="translate(-6.4 -2.4)"/><path class="cls-4" d="M381.12,488.48c0-5.89-.09-11.79.06-17.68,0-1.29.63-3.43,1.39-3.64,1.3-.37,3.58,0,4.32.91,1.56,2,3.09,4.47,3.36,6.88a107.12,107.12,0,0,1,.18,14.67c-.11,3.73-1.71,5.52-4.35,5.46C383,495,380,491.66,381.12,488.48Z" transform="translate(-6.4 -2.4)"/><path class="cls-4" d="M394.42,150.06h-7.36c-3.81,0-6.07-2.34-5.76-6,.18-2.08,1.18-3.56,3.41-3.58q9.19,0,18.39.13a9.43,9.43,0,0,1,2.93.81,4.22,4.22,0,0,1,3,4.74c-.23,2.59-1.95,3.46-4.2,3.51-3.48.08-7,0-10.43,0Z" transform="translate(-6.4 -2.4)"/><path class="cls-4" d="M168,347.12a23.8,23.8,0,0,1-1.27,5.18,4.25,4.25,0,0,1-5.72,2.21,5.82,5.82,0,0,1-3.16-3.85c-.7-6.29-1-12.65-1.27-19-.11-2.59,1.44-3.67,4-3.44,3.35.32,5.69,2.61,6.24,6.54C167.33,338.42,167.55,342.11,168,347.12Z" transform="translate(-6.4 -2.4)"/><path class="cls-4" d="M355.3,460.94a24,24,0,0,0-1.72-15.73c-1.25-2.73,1-5.2,3.69-4.07,2.12.89,4.72,2.47,5.5,4.4,2.29,5.68,3.76,11.66,2,17.93-.76,2.66-1.41,5.36-4.86,5.29C357.08,468.7,355.22,465.75,355.3,460.94Z" transform="translate(-6.4 -2.4)"/><path class="cls-4" d="M392.71,191.64a8.31,8.31,0,0,1,2.09-.58c6.28.35,12.56.84,18.85,1.12,2.78.12,4.83.88,5.08,4,.21,2.65-1.19,4.63-3.62,4.91-5.22.59-10.55,1.27-15.73.8C393.45,201.35,392,198.58,392.71,191.64Z" transform="translate(-6.4 -2.4)"/><path class="cls-4" d="M268.7,604.54c2.11,1.89,4.55,3,5.12,4.77,2.15,6.6,3.88,13.36,2.1,20.45-.65,2.59-2.2,4-4.71,3.87-1.17-.07-3.15-1.16-3.26-2C266.81,623,264.43,614.36,268.7,604.54Z" transform="translate(-6.4 -2.4)"/><path class="cls-4" d="M442.9,440.88c-3.56-.53-4.58-2.73-4.94-5.24-1-7.25-.93-14.68-3.61-21.69-.4-1,.22-3.44.94-3.72a5.5,5.5,0,0,1,4.45.46A8.51,8.51,0,0,1,443,415a58.24,58.24,0,0,1,1.4,23.69C444.28,439.39,443.51,440,442.9,440.88Z" transform="translate(-6.4 -2.4)"/><path class="cls-4" d="M464.8,437c-.11,1.18.07,2.95-.51,4.4-.46,1.12-1.84,2.52-2.88,2.59a4,4,0,0,1-3-2.28c-.7-2.52-.69-5.23-1.1-7.85-.81-5.24-1.72-10.47-2.58-15.71-.13-.8-.54-1.73-.29-2.4.46-1.23,1.09-2.91,2.08-3.3a4.09,4.09,0,0,1,3.66,1.09,11.59,11.59,0,0,1,2.74,5.37C463.74,424.73,464.16,430.64,464.8,437Z" transform="translate(-6.4 -2.4)"/><path class="cls-4" d="M378.37,515.36c3.92.5,6.86,2,7.37,5.28,1,6.16,2.88,12.33,1.27,18.72-.58,2.32-1.12,4.47-4.11,4.35a4.39,4.39,0,0,1-4.42-4.31C378.21,531.59,378.37,523.76,378.37,515.36Z" transform="translate(-6.4 -2.4)"/><path class="cls-4" d="M372.26,106.16c-3.25-.46-6-1-7.77-3.73-1.62-2.51-.58-4.83,2.36-5.35,5.82-1,11.63-2.12,17.47-3a8.51,8.51,0,0,1,4.66.64,4.49,4.49,0,0,1,2.33,3.12,4.06,4.06,0,0,1-2.2,3.12C383.56,102.9,377.89,104.47,372.26,106.16Z" transform="translate(-6.4 -2.4)"/><path class="cls-4" d="M182.46,388.18c-4.85-.08-6.88-2.6-5.54-6.09a24,24,0,0,1,13-14,4.21,4.21,0,0,1,5.45,1.44c1.49,2,1.12,3.79-.35,5.58-3.11,3.76-6.1,7.63-9.36,11.26A9.36,9.36,0,0,1,182.46,388.18Z" transform="translate(-6.4 -2.4)"/><path class="cls-4" d="M429.59,601.39c-.15,3,0,6.13-.57,9.08-.29,1.5-1.91,2.75-2.93,4.12-1.47-1.2-3.28-2.17-4.28-3.67-.83-1.25-.9-3.13-.94-4.73-.13-4.89-.24-9.79,0-14.66.06-1.34,1.17-3.55,2.11-3.73a5.89,5.89,0,0,1,4.82,1.38,10.29,10.29,0,0,1,2,5.5,38.83,38.83,0,0,1-.26,6.71Z" transform="translate(-6.4 -2.4)"/><path class="cls-4" d="M363.14,502.13c0,2,.05,4.09,0,6.14-.08,2.62-.75,5-3.8,5.47-2.19.33-4.9-2.28-5.26-5.09-.38-3-.42-6.13-.59-9.2a39.64,39.64,0,0,0-.25-4.89c-.49-2.67-.54-5,2.76-5.74,2.9-.62,6.49,1.71,6.85,4.71a72.51,72.51,0,0,1,.07,8.6Z" transform="translate(-6.4 -2.4)"/><path class="cls-4" d="M446.46,525.58c.63-6.39,1.12-12.51,1.9-18.59.38-2.92,2.51-3.72,4.91-2.07a7.65,7.65,0,0,1,3.58,7.94c-.9,5.23-2,10.42-3.15,15.61-.44,2.06-1.32,4.54-3.83,3.69-1.47-.5-2.41-2.81-3.36-4.45C446.16,527.1,446.46,526.11,446.46,525.58Z" transform="translate(-6.4 -2.4)"/><path class="cls-4" d="M188.31,183.51c3.78,5.14,3.86,6.44.57,10-2.62,2.86-5.35,5.63-8.13,8.34-2.5,2.44-5.85,2.62-8.28.6-1.95-1.62-2.05-3.91.13-7.14C176.4,189.68,182.29,186.79,188.31,183.51Z" transform="translate(-6.4 -2.4)"/><path class="cls-4" d="M479.25,374.53a9.41,9.41,0,0,1-5.38-8.39c-.43-6.72-.59-13.47-.61-20.2,0-1.19,1.22-3.35,1.89-3.35a5,5,0,0,1,3.84,1.94,17.7,17.7,0,0,1,2.46,7.46c.19,6.5-.17,13-.46,19.54C481,372.38,480.05,373.19,479.25,374.53Z" transform="translate(-6.4 -2.4)"/><path class="cls-4" d="M351.77,542.87c-.26-2.44-.77-5.67-.84-8.91,0-1.41.52-3.53,1.49-4.05s3.16-.16,4.51.46c2.69,1.25,3.44,4,3.62,6.66.29,4.26.25,8.55.23,12.83,0,2.42-.76,4.65-3.63,4.73a5,5,0,0,1-5.29-4.2C351.41,548.24,351.77,545.93,351.77,542.87Z" transform="translate(-6.4 -2.4)"/><path class="cls-4" d="M517,507.57a95.94,95.94,0,0,1,.13-10.46,4.85,4.85,0,0,1,2.81-3.27c.78-.28,2.5,1,3.28,2.05a7.25,7.25,0,0,1,1.48,4c.13,5.74,0,11.49,0,17.23a2.81,2.81,0,0,1-.44,1.76c-1.16,1.26-2.41,3.26-3.74,3.35-2.22.17-3.51-1.81-3.55-4.15,0-3.49,0-7,0-10.48Z" transform="translate(-6.4 -2.4)"/><path class="cls-4" d="M184.09,351.61A40.17,40.17,0,0,1,177.4,349a4.23,4.23,0,0,1-1.52-3.65,4.07,4.07,0,0,1,2.94-2.47A47,47,0,0,0,196,338.68c.91-.45,3.2.56,4,1.58,1.26,1.57,2,3.88,0,5.56a17.46,17.46,0,0,1-5.59,3.61C191.41,350.46,188.1,350.81,184.09,351.61Z" transform="translate(-6.4 -2.4)"/><path class="cls-4" d="M498,175.9c-1.14-1-2.82-2-3.64-3.4a38.2,38.2,0,0,1-3-7.41c-1.36-4.29-2.52-8.64-3.75-13-.52-1.82-1.13-4.11,1-4.79,1.38-.44,3.49.48,4.88,1.38a6.51,6.51,0,0,1,2.26,3.55c1.78,6.1,3.36,12.25,5,18.38C501.5,172.91,501,174.65,498,175.9Z" transform="translate(-6.4 -2.4)"/><path class="cls-4" d="M310.94,486.05c4.38,1.51,6,4.22,6.5,7.61.57,4,.78,8.12,1.23,12.18.31,2.79-.33,4.87-3.43,5.47-2.58.5-6.08-.95-6.41-3.49C307.87,500.62,307,493.29,310.94,486.05Z" transform="translate(-6.4 -2.4)"/><path class="cls-4" d="M525,467c0,2.25.11,4.51,0,6.76s-1.48,4-3.81,4.08a3.85,3.85,0,0,1-4.13-3.74c-.57-6.11-1.09-12.24-1.28-18.37,0-1.26,1.2-3.33,2.27-3.67a4.74,4.74,0,0,1,4.17,1.48,15.35,15.35,0,0,1,2.5,6.1,48.51,48.51,0,0,1,.43,7.36Z" transform="translate(-6.4 -2.4)"/><path class="cls-4" d="M311.18,528.4c4.42,1.33,6.13,4.15,6.3,7.91.2,4.28.08,8.59.12,12.88,0,2.64-1,4.32-3.87,4.41s-4.93-1.36-5.13-4.14c-.35-4.89-.22-9.82-.24-14.73a5.35,5.35,0,0,1,.38-2.4C309.43,531,310.35,529.71,311.18,528.4Z" transform="translate(-6.4 -2.4)"/><path class="cls-4" d="M523.71,421.51c0,2.66.16,5.33-.05,8-.16,2-1.46,3.75-3.55,3.38-1.25-.22-3.05-1.79-3.23-3-1-6.85-1.79-13.75-2.37-20.65-.1-1.13,1-3.18,1.81-3.38,1.31-.31,3.53.17,4.24,1.14a16.24,16.24,0,0,1,2.81,6.57c.47,2.57.11,5.29.11,7.94Z" transform="translate(-6.4 -2.4)"/><path class="cls-4" d="M158.14,466.08c5.55,1.46,8.38,3.87,8.79,8.24a86.16,86.16,0,0,1,.2,12.13c-.14,2.93-2.2,4.26-5.09,4.09s-4.33-2.09-4.28-4.92C157.88,479.38,157.4,473.09,158.14,466.08Z" transform="translate(-6.4 -2.4)"/><path class="cls-4" d="M464.78,269.21a26.72,26.72,0,0,1,.37-5.47c.32-1.18,1.45-2.89,2.35-3s2.43,1.19,3.15,2.23a9.09,9.09,0,0,1,1.26,4c.78,6.88,1.56,13.76,2,20.66.09,1.33-.75,3.46-1.78,4-2.14,1.08-3.46-.76-3.89-2.64-1.48-6.53-2.78-13.1-4.15-19.65Z" transform="translate(-6.4 -2.4)"/><path class="cls-4" d="M262.35,579.77c.48-2.72.67-5.84,1.64-8.69,1.11-3.27,3.8-3.56,6.11-.9a6.59,6.59,0,0,1,1.66,3.2q.89,6.68,1.33,13.39c.19,2.82-1.85,4-4.24,4.37s-4.62-.47-5.24-3.14S262.79,582.78,262.35,579.77Z" transform="translate(-6.4 -2.4)"/><path class="cls-4" d="M510.84,366c.24-.41.81-2.61,1.79-2.81a5.7,5.7,0,0,1,4.68,1.45,12.67,12.67,0,0,1,2.65,6c.68,4,.84,8.1,1.18,12.16.07.81.29,1.84-.1,2.4-1,1.39-2.15,3.49-3.39,3.59s-3.16-1.52-4.06-2.87-.79-3.12-1-4.73C512,376.47,511.51,371.82,510.84,366Z" transform="translate(-6.4 -2.4)"/><path class="cls-4" d="M493.44,556.66c7.37,2.29,6.23,8.29,6.23,12.65,0,5.58.53,12-5.17,16.21-3.17-.93-4.68-2.79-4.38-5.9q1-10.08,2.09-20.13A11.51,11.51,0,0,1,493.44,556.66Z" transform="translate(-6.4 -2.4)"/><path class="cls-4" d="M330.64,593.62c.35-4.08.76-8.16,1.05-12.24a3.74,3.74,0,0,1,3.88-3.89c2.68-.2,5.39,1.48,5.22,4a151.29,151.29,0,0,1-2.28,17.6,3,3,0,0,1-5.29,1.49c-1.63-1.72-2.33-4.34-3.44-6.56Z" transform="translate(-6.4 -2.4)"/><path class="cls-4" d="M459,491.77c-1.63-2.46-3.4-4-3.58-5.62-.77-7.07-1.24-14.18-1.46-21.28-.09-2.87,2.42-3.93,4.6-2.06,1.3,1.12,2.81,2.92,2.85,4.45.19,7.09-.07,14.19-.29,21.28C461.14,489.2,460.35,489.83,459,491.77Z" transform="translate(-6.4 -2.4)"/><path class="cls-4" d="M156.37,254.68c.34-2.54.66-6,1.29-9.4.54-3,2.49-3.82,4.81-2,1.49,1.2,3.05,3.06,3.35,4.84a60,60,0,0,1,.73,12.13c-.1,3-2.53,4.57-5.56,4.3-2.84-.25-4.49-1.77-4.61-4.7C156.32,258.46,156.37,257,156.37,254.68Z" transform="translate(-6.4 -2.4)"/><path class="cls-4" d="M479.33,506.56a43.54,43.54,0,0,1-.11,7.32c-.23,1.32-1.64,2.45-2.51,3.66-1.33-1-3.26-1.8-3.84-3.15-.94-2.18-1.1-4.73-1.39-7.15-.49-4-1-8.06-1.14-12.11,0-1.39.79-3.9,1.53-4a5.69,5.69,0,0,1,4.62,1.45,13.86,13.86,0,0,1,2.46,6.08,57.79,57.79,0,0,1,.45,7.92Z" transform="translate(-6.4 -2.4)"/><path class="cls-4" d="M175.86,535.94c4.58,0,6.16,3,6.56,6.3a100.33,100.33,0,0,1,.4,13.55c0,2.32-1.46,3.76-3.87,4-2.68.3-4.57-.87-4.93-3.48C173.08,549.43,173,542.55,175.86,535.94Z" transform="translate(-6.4 -2.4)"/><path class="cls-4" d="M408.48,341.1c5.94,1.66,11.49,3.06,16.93,4.8a3.71,3.71,0,0,1,2.24,5.06c-.55,1.26-2.91,2.71-4.2,2.49-5.42-.9-10.75-2.38-16.1-3.68a1.65,1.65,0,0,1-1-.61c-.77-1.76-2.12-3.64-1.92-5.31C404.52,342.79,407,342,408.48,341.1Z" transform="translate(-6.4 -2.4)"/><path class="cls-4" d="M342.12,546.7c0,2.66.07,5.32,0,8-.07,2.06-1.09,3.88-3.25,3.62-1.58-.19-3.91-1.25-4.36-2.49-2.32-6.34-1.71-12.89,0-19.29.23-.89,2.15-1.88,3.29-1.89a4.15,4.15,0,0,1,4.45,4.11c.2,2.64.05,5.31.05,8Z" transform="translate(-6.4 -2.4)"/><path class="cls-4" d="M357.72,627.33c0,2.66.06,5.32,0,8-.06,2.07-1.09,3.88-3.24,3.62-1.58-.19-3.91-1.25-4.37-2.49-2.32-6.34-1.7-12.89,0-19.29.23-.89,2.15-1.88,3.3-1.89a4.15,4.15,0,0,1,4.45,4.11c.19,2.65,0,5.31,0,8Z" transform="translate(-6.4 -2.4)"/><path class="cls-4" d="M360.76,414.15c0,.61.24,1.39-.05,1.8-1,1.39-2,3.6-3.21,3.69-1.36.11-2.9-1.65-4.3-2.68-.26-.18-.21-.76-.31-1.16-1.37-5.32-2.83-10.62-4-16-.32-1.42.16-3,.27-4.54a26.17,26.17,0,0,1,5.65.73,4.6,4.6,0,0,1,2.28,2.74c1.59,5,3,10.13,4.41,15.21Z" transform="translate(-6.4 -2.4)"/><path class="cls-4" d="M474.78,403.66a59.68,59.68,0,0,1,.11-7.92,4.52,4.52,0,0,1,2.4-3c.7-.31,2.54.56,3,1.39a17.65,17.65,0,0,1,2.51,6.66,94.13,94.13,0,0,1,0,14c-.1,1.51-1.26,3.78-2.48,4.23-2.36.86-3.8-1.29-4.18-3.33-.74-4-1.06-8-1.56-12Z" transform="translate(-6.4 -2.4)"/><path class="cls-4" d="M260.36,528.25a60.5,60.5,0,0,1,.07-7.38c.29-2.29,2.19-3.37,4-2,2,1.52,4.2,3.58,4.91,5.85,1.08,3.43,1.18,7.24,1.25,10.9a4.8,4.8,0,0,1-4.72,5.3c-2.83.19-5.19-2-5.63-5.3a8.44,8.44,0,0,1-.05-1.23v-6.16Zm3.06-4.7a8.12,8.12,0,0,0,.25-1,2.73,2.73,0,0,0-.49-.17c-.09.32-.19.64-.25,1A3.08,3.08,0,0,0,263.42,523.55Z" transform="translate(-6.4 -2.4)"/><path class="cls-4" d="M427.88,520.09c-.32-3.82-.74-6.67-.76-9.51s1.95-4,4.58-2.72a7.07,7.07,0,0,1,4.26,6.9c-.18,5.09-.65,10.18-1.09,15.26-.16,2-1.09,4-3.27,3.53-1.42-.31-3.37-2.09-3.55-3.42A70.57,70.57,0,0,1,427.88,520.09Z" transform="translate(-6.4 -2.4)"/><path class="cls-4" d="M470.09,249c-1.13-2.26-2.16-3.66-2.56-5.23q-2-7.69-3.51-15.51a19.55,19.55,0,0,1-.28-6.1c.35-2.64,2.5-3.3,4.46-1.63C474.33,225.81,476,241.53,470.09,249Z" transform="translate(-6.4 -2.4)"/><path class="cls-4" d="M159.06,419.61c3.36.61,5.49,2.38,6,5a111.52,111.52,0,0,1,1.61,13.3c.21,2.56-1.32,4.18-3.66,5s-4.57,0-5.08-2C156.2,433.83,155.41,426.64,159.06,419.61Z" transform="translate(-6.4 -2.4)"/><path class="cls-4" d="M492.24,524.21c-.19-2.47-.54-4.93-.51-7.38,0-1.07.58-2.8,1.29-3,1.17-.39,3.32-.29,3.89.47,1.41,1.88,2.84,4.2,3,6.45a108,108,0,0,1-.09,15.37c-.08,1.31-1.47,3.29-2.59,3.56s-2.94-1.08-3.74-2.22a9.28,9.28,0,0,1-1.22-4.6C492.11,530,492.24,527.08,492.24,524.21Z" transform="translate(-6.4 -2.4)"/><path class="cls-4" d="M147,163.8c5.45,3.44,6.11,4.84,5,9.74-.91,4.21-1.86,8.41-2.72,12.63-.45,2.18-1.29,4.24-3.76,4.13-2.7-.12-3.81-2.3-3.87-4.76C141.55,178,143.62,171,147,163.8Z" transform="translate(-6.4 -2.4)"/><path class="cls-4" d="M288.77,455.49c1.73-4.83,3.26-9.23,4.87-13.6.83-2.25,2.59-3.24,4.87-2.57,2.53.76,4.83,2.59,4.05,5.3a83.56,83.56,0,0,1-5.45,13.53c-.84,1.69-3,3.46-5.12,2.11C290.58,459.37,289.92,457.28,288.77,455.49Z" transform="translate(-6.4 -2.4)"/><path class="cls-4" d="M416.15,499.33c0,2.05.15,4.11,0,6.13s-.73,4.68-3.17,4.44c-1.52-.15-3.31-2.14-4.11-3.73a18.57,18.57,0,0,1-1.45-6.55,86.74,86.74,0,0,1-.27-9.81c.09-3.25,2.18-4.6,4.79-2.77a12,12,0,0,1,4.12,5.6c.69,2,.15,4.44.15,6.69Z" transform="translate(-6.4 -2.4)"/><path class="cls-4" d="M471.15,456.4c.69-4,1.43-9.1,2.5-14.09.24-1.14,1.81-3,2.42-2.85a5.49,5.49,0,0,1,3.61,2.57,12.85,12.85,0,0,1,.79,6c-.43,4.68-1.16,9.34-1.88,14-.28,1.84-.82,4.17-3.14,3.71-1.44-.28-2.95-2-3.69-3.42S471.37,459.1,471.15,456.4Z" transform="translate(-6.4 -2.4)"/><path class="cls-4" d="M273.06,494.52c0,2.05.13,4.11,0,6.14-.23,2.84-1.86,4.55-4.77,4.59s-5.17-1.55-5.21-4.21a102.6,102.6,0,0,1,1.19-15.23c.11-.87,2.08-2.06,3.23-2.1a5.18,5.18,0,0,1,5.44,4.08,39.44,39.44,0,0,1,.46,6.73Z" transform="translate(-6.4 -2.4)"/><path class="cls-4" d="M494,378.38c-.41-3,1.57-4.37,3.86-2.54,1.6,1.29,3.38,3.44,3.51,5.31a178.37,178.37,0,0,1,.1,19.07c-.05,1.26-1.58,2.46-2.42,3.69a19.2,19.2,0,0,1-3.37-3,6.83,6.83,0,0,1-.94-3.5C494.45,391.06,494.26,384.72,494,378.38Z" transform="translate(-6.4 -2.4)"/><path class="cls-4" d="M140.51,319.23a46.54,46.54,0,0,1,.05-6.14c.4-2.88,2.41-3.66,4.87-2.06a8.66,8.66,0,0,1,4.11,7.79c0,3.49-.1,7-.27,10.46-.09,1.8.06,4-2.46,4.28s-4.6-.83-5.14-3.39c-.77-3.57-1.12-7.24-1.65-10.87Z" transform="translate(-6.4 -2.4)"/><path class="cls-4" d="M496.33,472.66c5.66.49,7.47,2.28,7.48,7.07s0,9.39-.06,14.08a9.45,9.45,0,0,1-.36,3c-.95,2.59-3.46,3-5.25.85a6.62,6.62,0,0,1-1.54-2.63A59.58,59.58,0,0,1,496.33,472.66Z" transform="translate(-6.4 -2.4)"/><path class="cls-4" d="M412.35,548.64a66.68,66.68,0,0,1,.36,7.32c-.15,2.86-2.51,3.86-4.68,2a6.33,6.33,0,0,1-2.29-3.43A181.24,181.24,0,0,1,404,536.41c-.09-3,3.11-4.23,5.17-2a15.69,15.69,0,0,1,3.23,6.88c.54,2.32.12,4.87.12,7.31Z" transform="translate(-6.4 -2.4)"/><path class="cls-4" d="M400.28,621.65a64.2,64.2,0,0,1,.37,7.32c-.15,2.86-2.51,3.85-4.69,2a6.33,6.33,0,0,1-2.28-3.44,180.66,180.66,0,0,1-1.77-18.12c-.09-3,3.11-4.23,5.17-2a15.73,15.73,0,0,1,3.23,6.89c.53,2.32.11,4.86.11,7.31Z" transform="translate(-6.4 -2.4)"/><path class="cls-4" d="M220.49,175.38c.91,1,2.22,1.69,2.36,2.6a5,5,0,0,1-.95,3.82,10.11,10.11,0,0,1-4.34,2.09c-3.34.93-6.75,1.63-10.14,2.4a8.27,8.27,0,0,1-2.4.33c-2.57-.18-6.12-3.31-6-5.4.2-2.88,2.66-3.56,4.82-3.89C209.32,176.51,214.81,176,220.49,175.38Z" transform="translate(-6.4 -2.4)"/><path class="cls-4" d="M349.05,594.2c.49-5.15.84-9,1.22-12.81.21-2.07,1.6-2.64,3.43-2.63a6.2,6.2,0,0,1,6.39,6.7,65.77,65.77,0,0,1-1.82,10.19c-.57,2.54-1.84,4.69-5,4.28s-3.86-2.66-4.23-5.24C349,594.09,349,593.47,349.05,594.2Z" transform="translate(-6.4 -2.4)"/><path class="cls-4" d="M228.19,387.21c-2.32-.59-3.75-.56-4.6-1.25-1.16-.95-2.61-2.47-2.57-3.69s1.64-2.67,2.91-3.33c2.15-1.11,4.62-1.57,6.89-2.48,2.63-1.07,5.17-2.38,7.79-3.49s4.55-.23,4.55,2.71c0,1.65-.56,4.12-1.72,4.81C237,383.16,232.15,385.26,228.19,387.21Z" transform="translate(-6.4 -2.4)"/><path class="cls-4" d="M172.62,509.52c.41-4.94.55-8.62,1.07-12.25.43-3,2.09-3.8,4.76-2.28,1.36.77,3.32,2,3.43,3.21a99.77,99.77,0,0,1,.36,15.07c0,.88-2.54,2.41-3.75,2.28a8.6,8.6,0,0,1-5-2.63C172.58,511.87,172.7,509.87,172.62,509.52Z" transform="translate(-6.4 -2.4)"/><path class="cls-4" d="M360,387.59c4.29-2.29,7.22-2.11,9.42.62,3.47,4.3,6.7,8.8,9.9,13.3,1.37,1.92,2.25,4.24-.11,6-2,1.49-4.15.49-5.44-1.21C369.19,400.35,364.84,394.24,360,387.59Z" transform="translate(-6.4 -2.4)"/><path class="cls-4" d="M148.05,143c2.38-4.69,4.64-9.44,7.25-14,.43-.74,2.59-1,3.68-.7,2.46.78,4.56,4.28,3.73,6.33a118.52,118.52,0,0,1-6.21,13.26c-.43.78-2.92.89-4.3.58C149.71,147.87,148.63,145.92,148.05,143Z" transform="translate(-6.4 -2.4)"/><path class="cls-4" d="M447.53,551.37c4.59-.17,6.39,2.85,6.78,6a96.45,96.45,0,0,1,.21,14.63,4,4,0,0,1-4.25,4.28c-2.45,0-3.71-1.9-3.77-4-.14-6.29,0-12.59.06-18.88C446.56,552.83,447.06,552.3,447.53,551.37Z" transform="translate(-6.4 -2.4)"/><path class="cls-4" d="M254.86,182.75c-.46,6.15-2.07,8-7.27,6.81a51.63,51.63,0,0,1-11.93-4.68c-1.65-.85-2.91-2.9-3.75-4.68a4.38,4.38,0,0,1,.41-3.92c.72-.81,2.56-1,3.84-.85s2.65,1,4,1.55Z" transform="translate(-6.4 -2.4)"/><path class="cls-4" d="M203.31,524.4c-3.7.18-4.16-2-4.79-3.91-2.86-8.56-3.32-20-1.07-25,4.72.88,6.15,2.14,6.22,5.72q.15,9.13.16,18.27C203.82,521,203.51,522.58,203.31,524.4Z" transform="translate(-6.4 -2.4)"/><path class="cls-4" d="M195.89,324.08a29.67,29.67,0,0,1-15.46-3.85c-1.07-.59-2.42-1-3.09-1.94a24.9,24.9,0,0,1-2.16-4.57c1.65-.41,3.4-1.37,4.93-1.09,3,.53,5.83,1.9,8.8,2.65,2.76.71,5.64,1,8.43,1.59,2.62.58,4.36,2.74,3.81,4.7C200.47,324,198.68,324.65,195.89,324.08Z" transform="translate(-6.4 -2.4)"/><path class="cls-4" d="M280.1,399.82c3.2-4.31,6.36-8.77,9.78-13,.74-.92,2.69-1.83,3.55-1.47a5.54,5.54,0,0,1,2.91,3.43,9.25,9.25,0,0,1-.74,5.29,39.86,39.86,0,0,1-4.36,7.32C286.93,407.15,284,406.74,280.1,399.82Z" transform="translate(-6.4 -2.4)"/><path class="cls-4" d="M434.14,470.51c-.12-1.79-.42-4.25-.38-6.71.05-2.91,2-4,4.58-2.69,2.28,1.18,4,2.83,4,5.71-.09,4.52-.12,9-.24,13.56a4.34,4.34,0,0,1-.57,2.35c-.8,1-1.86,2.55-2.89,2.61s-2.62-1.07-3.35-2.11a8.15,8.15,0,0,1-1.09-4C434,476.53,434.14,473.85,434.14,470.51Z" transform="translate(-6.4 -2.4)"/><path class="cls-4" d="M177.18,579.66c.95-1.28,1.95-3.87,3.22-4,1.54-.17,4,1.36,4.8,2.84,1.31,2.44,1.67,5.42,2.32,8.2.47,2,.81,4,1.15,6,.42,2.44.09,4.58-2.7,5.39-2.54.73-4.83-.34-5.63-3.32C179.07,590,178.31,585.18,177.18,579.66Z" transform="translate(-6.4 -2.4)"/><path class="cls-4" d="M320.19,451.76c-.19,2-.22,4.08-.61,6.07-.46,2.33-1.63,4.15-4.39,4.31-3,.17-5.22-1.71-5.17-4.11a91.13,91.13,0,0,1,2-15.57c.46-2.28,2.43-2.34,4.35-1C320.12,444,320.45,447.73,320.19,451.76Z" transform="translate(-6.4 -2.4)"/><path class="cls-4" d="M288.09,534.21a28,28,0,0,1,.08-5.5c.33-1.63,1.33-4.41,2.08-4.42a12.06,12.06,0,0,1,6,1.94c.82.48,1.26,2.13,1.32,3.28a103.86,103.86,0,0,1,.16,11,5.41,5.41,0,0,1-4.9,5.31c-2.62.06-4.09-1.71-4.35-5.51-.13-2,0-4.08,0-6.12Z" transform="translate(-6.4 -2.4)"/><path class="cls-4" d="M309.48,583.62c0-3-.36-6.16.09-9.14.5-3.27,2.75-3.75,5.23-1.48a4.21,4.21,0,0,1,1.22,1.36,33.18,33.18,0,0,1,1.52,18.49c-.49,2.35-2.64,3-4.88,2.62s-3.11-1.84-3.17-3.89C309.41,588.93,309.47,586.28,309.48,583.62Z" transform="translate(-6.4 -2.4)"/><path class="cls-4" d="M224.42,357.81c2.55,4.13,2.63,7-.81,8.55a73.77,73.77,0,0,1-13.88,4.41c-2.44.58-5.31-.15-6-3-.73-3.14,2-4.13,4.37-4.89C213.53,361.13,219,359.5,224.42,357.81Z" transform="translate(-6.4 -2.4)"/><path class="cls-4" d="M396.57,392.53c3.43-1.25,5.5.33,7.16,2.52a40.57,40.57,0,0,1,7.35,16.08,4.35,4.35,0,0,1,.06,2.42c-.62,1.39-1.26,3.3-2.42,3.8-2,.86-3.38-.74-4.14-2.61C402,408.52,399.49,402.3,397,396A14.74,14.74,0,0,1,396.57,392.53Z" transform="translate(-6.4 -2.4)"/><path class="cls-4" d="M405.25,582.05c0,4,.21,8.1-.12,12.12-.1,1.3-1.43,3.21-2.54,3.5s-3.13-.74-3.94-1.81a10.32,10.32,0,0,1-1.77-5.05c-.4-3.81-.52-7.67-.58-11.51-.07-3.64,2.43-5.19,5.69-3.5C404.45,577.08,406.23,579,405.25,582.05Z" transform="translate(-6.4 -2.4)"/><path class="cls-4" d="M476.89,190c.69-1.13,1.26-3.15,2.32-3.46a5.11,5.11,0,0,1,4.29,1.35,9.72,9.72,0,0,1,2,4.89c.78,4.82,1.3,9.68,1.88,14.53a9,9,0,0,1,.07,3,2.64,2.64,0,0,1-4.7,1.22,10.39,10.39,0,0,1-2.29-4.27C479.17,201.7,478.13,196.09,476.89,190Z" transform="translate(-6.4 -2.4)"/><path class="cls-4" d="M417.65,299.87c3.07,6,2.09,9-3.07,11.12-7.26,3-13.11.73-14.67-5.69-.65-2.64.45-4.35,2.83-4.13,2.6.24,5.21,1.14,7.75.95C412.82,302,415.06,300.73,417.65,299.87Z" transform="translate(-6.4 -2.4)"/><path class="cls-4" d="M308.36,624.56c0-1.63,0-3.26,0-4.9,0-2,.5-3.85,2.8-4.07,2.52-.25,4.59,1.08,4.95,3.56.73,5,1.06,10.13,1.47,15.2.19,2.44-1.17,3.89-3.5,4.23-2.73.39-4.25-1.1-4.66-3.69-.54-3.42-.95-6.86-1.41-10.29Z" transform="translate(-6.4 -2.4)"/><path class="cls-4" d="M472.33,542.81c-.05-.61-.13-1.22-.16-1.83-.09-2.2-.72-4.87,2.31-5.49,2.74-.56,3.92,1.85,4.87,3.82a14.91,14.91,0,0,1,1,4.68c.43,3.43.74,6.87,1.09,10.31a16.06,16.06,0,0,1,.12,1.83c0,2.09-.13,4.37-2.57,5-2.94.72-4-1.61-4.51-3.83-1-4.76-1.73-9.59-2.57-14.39Z" transform="translate(-6.4 -2.4)"/><path class="cls-4" d="M438.94,394.12a18.63,18.63,0,0,1-2.41-2.05c-4.15-4.76-8.31-9.52-12.33-14.39-2.44-3-3-6.22-1.28-7.06,2.67-1.33,5.06.19,6.48,2.05,4.2,5.47,8.2,11.12,11.88,16.95C442.74,391.92,441.37,394.34,438.94,394.12Z" transform="translate(-6.4 -2.4)"/><path class="cls-4" d="M323.1,371.52c0-2.25-.08-4.5,0-6.75.13-3,1.44-3.94,4.36-3.39s4.65,2.48,4.5,5.06a114.6,114.6,0,0,1-2.1,15.06c-.2,1-2.28,2.69-2.84,2.46-1.5-.61-3.52-1.93-3.78-3.26-.56-3-.17-6.11-.17-9.18Z" transform="translate(-6.4 -2.4)"/><path class="cls-4" d="M377,125.23a23.26,23.26,0,0,1-3.55-.46c-2.27-.8-5.1-1.32-5.11-4.41s2.71-3,4.88-3.42c3.39-.66,6.74-1.79,10.15-2a16,16,0,0,1,7.51,1.48,2.53,2.53,0,0,1-.32,4.76C385.84,122.89,380.9,124.1,377,125.23Z" transform="translate(-6.4 -2.4)"/><path class="cls-4" d="M220.92,325.64c-2.58-.59-5.46-.92-8-2a4.6,4.6,0,0,1-2.31-3.71c.13-1.05,2-2.49,3.34-2.69,4.83-.74,9.73-1.08,14.61-1.51,3-.26,5.75,1.47,6,3.94.3,2.94-1.85,3.82-4.2,4.28C227.31,324.56,224.29,325,220.92,325.64Z" transform="translate(-6.4 -2.4)"/><path class="cls-4" d="M158.86,380.35c6.37,1.45,7.72,2.83,8.2,7.88.18,1.82.36,3.65.55,5.47.41,3.87-1.07,6.11-4.47,6.77-3.09.6-4.84-.57-5.82-4.74C156.09,390.45,157.58,385.4,158.86,380.35Z" transform="translate(-6.4 -2.4)"/><path class="cls-4" d="M158.39,505.83c6.55,3.14,10.09,11.5,7.94,17.23a4.71,4.71,0,0,1-4.65,3.36c-2.23,0-4.68-.59-4.85-2.86C156.39,517.8,155.22,511.83,158.39,505.83Z" transform="translate(-6.4 -2.4)"/><path class="cls-4" d="M478,595.43a22,22,0,0,1,0,2.44c-.23,2-1.1,3.55-3.31,3.78a3.53,3.53,0,0,1-3.95-3.11c-1.15-5.58-2.15-11.2-2.92-16.84-.16-1.15.75-3.3,1.57-3.52a5.43,5.43,0,0,1,4.23,1.08,8,8,0,0,1,2.45,4.11c.93,4,1.5,8,2.22,12Z" transform="translate(-6.4 -2.4)"/><path class="cls-4" d="M408.28,445.2c4.16-.55,7,.63,7.83,4a142.33,142.33,0,0,1,2.54,16.36c.12,1.14-1.08,2.43-1.67,3.66-1.36-.68-3.48-1-4-2.1A57.68,57.68,0,0,1,408.28,445.2Z" transform="translate(-6.4 -2.4)"/><path class="cls-4" d="M500.22,344.34c-.12,1.84,1.15,5.15-2.06,5.81-3.65.76-4-2.85-4.51-5.3-1-5.41-1.83-10.87-2.44-16.34-.13-1.17.62-3.09,1.52-3.53a4.14,4.14,0,0,1,3.78.81A8.61,8.61,0,0,1,499,330.4C499.67,334.85,499.83,339.36,500.22,344.34Z" transform="translate(-6.4 -2.4)"/><path class="cls-4" d="M424.25,558.3c.23-3,.14-5.33.63-7.49.69-3.11,3.2-4,5.38-1.67a11.5,11.5,0,0,1,2.9,6.28c.37,3.6-.13,7.29-.32,10.94-.11,2.06-.23,4.46-2.83,4.74s-4.21-1.33-4.61-3.89C424.9,564,424.56,560.76,424.25,558.3Z" transform="translate(-6.4 -2.4)"/><path class="cls-4" d="M522.65,548.27a70.24,70.24,0,0,1-.92,7.26c-.49,2.16-2.24,4.05-4.35,3.39-1.58-.49-3.66-2.69-3.7-4.17a110.36,110.36,0,0,1,.9-15.93c.36-3.06,3.29-3.85,5.36-1.53a10.56,10.56,0,0,1,2.32,4.83c.4,2,.09,4.08.09,6.12Z" transform="translate(-6.4 -2.4)"/><path class="cls-4" d="M443.36,92.18a16.93,16.93,0,0,1,3.23.61c4.29,1.93,8.56,3.9,12.78,5.95,2.34,1.14,3.56,3.32,2.19,5.5-.66,1.05-3.37,1.66-4.75,1.22-4.85-1.54-9.52-3.63-14.26-5.53a1.81,1.81,0,0,1-1-.7c-.73-1.56-2.19-3.39-1.82-4.66S442.42,92.75,443.36,92.18Z" transform="translate(-6.4 -2.4)"/><path class="cls-4" d="M219.86,344.49c-1.93-1-4.49-1.85-6.25-3.51-2.15-2-1.08-4.94,1.83-5.43A109.78,109.78,0,0,1,230,333.78c1.52-.06,3.73,1.65,4.51,3.13,1.09,2.08-.34,4.06-2.57,4.7C228.22,342.67,224.43,343.42,219.86,344.49Z" transform="translate(-6.4 -2.4)"/><path class="cls-4" d="M201.31,390.09c.63.48,2.53,1.26,3.18,2.63.52,1.09-.22,3.06-.91,4.37-1.11,2.12-2.7,4-4,6-2.05,3.21-4.44,3.95-7.78,2.3-3.16-1.57-3.67-3.28-2.08-7.06C191.71,393.61,196.22,390,201.31,390.09Z" transform="translate(-6.4 -2.4)"/><path class="cls-4" d="M447.75,588.39c6.32.87,8.1,2.56,7.94,7.41-.13,3.87-.75,7.73-1.19,11.59-.24,2.15-1.64,3.6-3.65,3.33a5.41,5.41,0,0,1-3.64-2.59,11.17,11.17,0,0,1-.73-5.39C446.75,598.09,447.28,593.46,447.75,588.39Z" transform="translate(-6.4 -2.4)"/><path class="cls-4" d="M464.5,389.69c-.13,3.58.6,6.81-2.94,8.12-2,.73-3.51-1.5-4.62-6.25q-1.53-6.53-3.11-13.05c-.43-1.79-1.32-4.08,1.12-4.65a5.7,5.7,0,0,1,4.63,1.75C463.17,379.82,464.24,385,464.5,389.69Z" transform="translate(-6.4 -2.4)"/><path class="cls-4" d="M491.8,283.84a21.55,21.55,0,0,1-.53-4.87c.14-1.27.82-3.05,1.78-3.5s2.83,0,3.91.74c2.21,1.4,3.06,3.58,2.94,6.32-.18,3.65,0,7.31.1,11a10.12,10.12,0,0,1,.05,1.23c-.25,2.23-.26,5-3,5.34-3,.35-3.33-2.37-3.67-4.67-.58-3.84-1.19-7.68-1.79-11.53Z" transform="translate(-6.4 -2.4)"/><path class="cls-4" d="M494.75,432.08c4.61-.87,6.91,1.53,7.28,4.64a77.32,77.32,0,0,1,0,14.67c-.14,1.92-1.08,4.4-3.76,4s-3.55-2.36-3.51-5C494.82,444.31,494.75,438.21,494.75,432.08Z" transform="translate(-6.4 -2.4)"/><path class="cls-4" d="M485.78,230.94c5-.15,7.05,2.05,7.55,4.92,1,5.82,1.46,11.74,1.9,17.63a3.26,3.26,0,0,1-1.91,2.58,3.66,3.66,0,0,1-3-1.43,11.42,11.42,0,0,1-1.79-4.52C487.55,243.94,486.75,237.73,485.78,230.94Z" transform="translate(-6.4 -2.4)"/><path class="cls-4" d="M449.55,292.35c3.56,4.64,3.65,7.28.19,10.29a41.85,41.85,0,0,1-6.2,4c-4.61,2.74-7.92-.76-8.64-5.22a3.57,3.57,0,0,1,1.47-3C440.72,296.2,445.21,294.3,449.55,292.35Z" transform="translate(-6.4 -2.4)"/><path class="cls-4" d="M509,329.71c.42-2.4,0-4.81,3.16-5.46,2.81-.59,4.07,1.38,5.24,3.33a8,8,0,0,1,1.12,2.81c.56,4,1.09,8.08,1.39,12.14.08,1.05-.44,2.83-1.15,3.1a4.86,4.86,0,0,1-3.94-.28A7.8,7.8,0,0,1,512,341.5C510.84,337.63,510,333.65,509,329.71Z" transform="translate(-6.4 -2.4)"/><path class="cls-4" d="M227.78,408.86c.42-.81.63-2,1.32-2.47,4.76-3.12,9.51-6.29,14.5-9,2.87-1.58,5.37-.4,6.4,2.32s-.71,4.16-2.86,5.21c-3.84,1.87-7.66,3.79-11.58,5.5C232,412,231.93,411.83,227.78,408.86Z" transform="translate(-6.4 -2.4)"/><path class="cls-4" d="M441.32,157.39c-4.52-1.56-8.45-2.68-12.18-4.27-2.81-1.2-3.13-4.19-3.15-6.79a2.52,2.52,0,0,1,3.46-2.44,134.13,134.13,0,0,1,14.39,6.38c1.05.57,1.83,3.37,1.35,4.6S442.51,156.68,441.32,157.39Z" transform="translate(-6.4 -2.4)"/><path class="cls-4" d="M217.21,470.56c5.87.35,7.38,1.35,7.69,5.56a77.45,77.45,0,0,1-.06,11.6c-.28,3.68-2.07,4.42-5.43,2.85a5.82,5.82,0,0,1-3.61-6.4C216.22,479.75,216.71,475.34,217.21,470.56Z" transform="translate(-6.4 -2.4)"/><path class="cls-4" d="M247.72,108.32c-3.1-.91-5.56-1.33-7.7-2.4a4.51,4.51,0,0,1-1.82-3.47c0-.82,1.39-2.2,2.35-2.39,5.21-1,10.48-1.83,15.75-2.58a6.13,6.13,0,0,1,3,.55c3.18,1.31,3.69,4.49.65,6C256,105.91,251.57,107,247.72,108.32Zm9.25-6.95c.16-.07.41-.09.48-.2s-.07-.33-.12-.5l-.79.34Z" transform="translate(-6.4 -2.4)"/><path class="cls-4" d="M268,462.69c1.22-3.2,2.15-6.57,3.8-9.53.69-1.25,3.51-2.7,4.29-2.24,1.71,1,3.62,3.07,3.82,4.89.36,3.17-.36,6.5-.9,9.72-.38,2.31-3.18,3.84-5.71,3.44C270.16,468.48,268.49,466.32,268,462.69Z" transform="translate(-6.4 -2.4)"/><path class="cls-4" d="M198.4,134c-1.13-.86-3.33-1.8-4.32-3.46-1.46-2.43.49-4.72,2.53-5.4a63.41,63.41,0,0,1,13-2.83,3.86,3.86,0,0,1,4.18,4.31,5.77,5.77,0,0,1-3.23,3.77C207,131.78,203.19,132.6,198.4,134Z" transform="translate(-6.4 -2.4)"/><path class="cls-4" d="M161.37,284.92c6.76,3,10,13,6.23,18.12a6.48,6.48,0,0,1-4.69,2.13c-1.17,0-3.17-1.65-3.34-2.78C158.72,296.62,157.63,290.69,161.37,284.92Z" transform="translate(-6.4 -2.4)"/><path class="cls-4" d="M342.18,511.39c.28,2.17,1,3.93.56,5.38a6.59,6.59,0,0,1-3,4c-1,.45-3.45-.45-4.1-1.48a19.74,19.74,0,0,1-2.42-6.8c-.42-2.19-.14-4.5-.27-6.75-.14-2.51.24-4.55,3.34-4.78s5.42,1.32,5.83,4.22A42.16,42.16,0,0,1,342.18,511.39Z" transform="translate(-6.4 -2.4)"/><path class="cls-4" d="M188.14,460.55c-.61,2.73-.77,4.6-1.46,6.25-1,2.42-3.14,3.1-5.58,2.58a4.1,4.1,0,0,1-3.48-4.42,126.38,126.38,0,0,1,1.19-12.75,3.18,3.18,0,0,1,6-1.21A98.2,98.2,0,0,1,188.14,460.55Z" transform="translate(-6.4 -2.4)"/><path class="cls-4" d="M140.52,517.65a39.35,39.35,0,0,1,0-5.54c.48-3.27,3.14-4.47,5.78-2.5,1.37,1,3.12,2.79,3.1,4.19a70.51,70.51,0,0,1-1.64,13.33c-.22,1-2.45,2.13-3.84,2.27-.82.08-2.38-1.55-2.63-2.62a88.78,88.78,0,0,1-1.19-9.1Z" transform="translate(-6.4 -2.4)"/><path class="cls-4" d="M241.71,577.7c4.37-.66,6.26,1.55,7,4.43a88.1,88.1,0,0,1,1.91,12c.23,2.17-.69,4.11-3.11,4.6s-5.61-1.78-5.72-4.28C241.56,589,241.71,583.54,241.71,577.7Z" transform="translate(-6.4 -2.4)"/><path class="cls-4" d="M392.3,439.54c-1.26,1.33-2.28,3.18-3.81,3.83-2,.84-5.32-1.94-5.86-4.35-.89-3.94-1.91-7.87-2.55-11.85-.24-1.43.45-3,.71-4.52,1.66.38,3.74.24,4.91,1.21C390.4,427.71,389.92,433.78,392.3,439.54Z" transform="translate(-6.4 -2.4)"/><path class="cls-4" d="M289.64,489.16c0-2-.16-4.11,0-6.13.33-3.19,2.19-4.32,5.06-3.1a7.17,7.17,0,0,1,2.85,2.17c2.13,2.79,1.93,11.9-.17,14.71-1.32,1.76-3,2.86-5.26,2.26s-2.41-2.51-2.47-4.39,0-3.68,0-5.52Z" transform="translate(-6.4 -2.4)"/><path class="cls-4" d="M139,441.93a56,56,0,0,1,1.34-6.08c1-2.91,3.29-3.46,5.63-1.46.61.52,1.5,1.22,1.52,1.86.12,5.4.21,10.82-.08,16.21,0,.78-2.18,2-3.32,2-1,0-2.43-1.41-2.76-2.48C140.28,448.69,139.7,445.27,139,441.93Z" transform="translate(-6.4 -2.4)"/><path class="cls-4" d="M331.56,628.09c-.2-2-.55-4.05-.57-6.07,0-3,2.32-4.7,4.85-3.09,1.68,1.06,3.5,3.18,3.73,5a66.38,66.38,0,0,1-.17,12.2c-.13,1.93-1.19,3.54-3.44,3.63-2.6.11-4.46-1.14-4.75-3.74a72.27,72.27,0,0,1-.06-7.93Z" transform="translate(-6.4 -2.4)"/><path class="cls-4" d="M503.51,283.36c.49-.73,1-2.47,2.05-2.8a4,4,0,0,1,3.56,1.37,39,39,0,0,1,3.47,7.77,51.12,51.12,0,0,1,2.25,8.92,3.2,3.2,0,0,1-5.4,3,9.13,9.13,0,0,1-3.19-4.34C505.11,292.94,504.47,288.45,503.51,283.36Z" transform="translate(-6.4 -2.4)"/><path class="cls-4" d="M410.23,333.74a6.67,6.67,0,0,1-7.44-3.74c-1.27-2.49-.39-4.63,2.37-5.07,4.43-.7,8.91-1.19,13.38-1.53,1-.07,2.72.69,2.94,1.41a6.11,6.11,0,0,1-.23,4.45C418.78,333.09,414.81,334,410.23,333.74Z" transform="translate(-6.4 -2.4)"/><path class="cls-4" d="M331.7,470.21c0-1.43,0-2.86,0-4.29,0-1.87-.18-3.89,2.19-4.45,2.66-.63,5.32.15,6.18,2.7a22.05,22.05,0,0,1-.86,15.5c-.31.76-3.27,1.4-4.05.82a10,10,0,0,1-3.21-4.8c-.53-1.68-.11-3.65-.11-5.48Z" transform="translate(-6.4 -2.4)"/><path class="cls-4" d="M249.21,622.23a14.88,14.88,0,0,1,0-3.06c.62-2.81,3.09-3.75,4.89-1.55a20.45,20.45,0,0,1,3.78,7.45c.68,2.5.4,5.28.44,7.94,0,2,.2,4.31-2.62,4.76a4.92,4.92,0,0,1-5.41-4c-.62-3.82-.87-7.7-1.27-11.55Z" transform="translate(-6.4 -2.4)"/><path class="cls-4" d="M140.64,565.29c-.81-6-1.65-11.68-2.27-17.35-.11-1,.46-2.83,1.14-3.08a5.39,5.39,0,0,1,3.88.42c3.8,2,6.19,14.85,3.57,18.78C145.78,565.82,145.63,565.92,140.64,565.29Z" transform="translate(-6.4 -2.4)"/><path class="cls-4" d="M214.33,306.29c-3.16-.61-6.62-1.2-8.79-4.4-1.67-2.46-.87-4.57,2.09-4.74,4.68-.27,9.38-.29,14.07-.13a4.94,4.94,0,0,1,4.49,4.93c-.17,2.69-2.18,3.1-4.32,3.35C219.44,305.58,217,305.94,214.33,306.29Z" transform="translate(-6.4 -2.4)"/><path class="cls-4" d="M373.93,564c3.29-.41,4.73,1.29,5.79,3.3,2.46,4.65,2.61,9.74,2.39,14.83-.1,2.27-1.37,4.31-3.74,3.83-1.66-.34-4.21-2.08-4.32-3.38C373.53,576.46,372.64,570.21,373.93,564Z" transform="translate(-6.4 -2.4)"/><path class="cls-4" d="M244.29,476.15c1.64-3.91,3.08-7.91,5-11.66.59-1.13,3-2.49,3.76-2.11,1.56.84,3.79,2.94,3.58,4.16a78.48,78.48,0,0,1-3.95,14c-.29.79-2.88,1.22-4.28,1C246.18,481.22,245,479.08,244.29,476.15Z" transform="translate(-6.4 -2.4)"/><path class="cls-4" d="M180.77,415c5.58,3.28,7.65,11.69,4.15,16.87-1.89,2.79-6.84,2.62-8.31-.29C174.45,427.33,176.67,418.5,180.77,415Z" transform="translate(-6.4 -2.4)"/><path class="cls-4" d="M474.84,310.32a55.44,55.44,0,0,1,1.11-7.19c.83-2.92,3.67-3.36,5.38-.79a11.54,11.54,0,0,1,1.71,5.09c.43,4.23.63,8.5.7,12.75,0,1.05-.66,2.85-1.32,3a4.42,4.42,0,0,1-3.68-.91C475.67,319,474.75,314.81,474.84,310.32Z" transform="translate(-6.4 -2.4)"/><path class="cls-4" d="M197.07,543.33c4,.23,5.76,2.45,6.26,5,1.21,6.26,3.34,12.68-.08,18.75-2.82.73-4-.75-4.53-2.58a34.83,34.83,0,0,1-1.4-6.56c-.45-3.84-.74-7.7-1-11.56A12,12,0,0,1,197.07,543.33Z" transform="translate(-6.4 -2.4)"/><path class="cls-4" d="M411.88,90.5a77.41,77.41,0,0,1,9.42.94,15.61,15.61,0,0,1,6,2.86A4.45,4.45,0,0,1,428.31,98a3.44,3.44,0,0,1-2.76,1.88c-4.85-.32-9.69-.89-14.51-1.55a3.93,3.93,0,0,1-2.52-1.59c-.79-1.27-1.62-2.89-1.46-4.24.09-.77,2.1-1.36,3.31-1.9A4.06,4.06,0,0,1,411.88,90.5Z" transform="translate(-6.4 -2.4)"/><path class="cls-4" d="M324.16,394.49c-1.37,3.36-2.52,6.84-4.2,10.05a3.73,3.73,0,0,1-5.29,1.55c-2.87-1.38-4.4-3.84-3.43-6.3,1.05-2.64,2.53-5.12,3.82-7.67.93-1.84,1.79-3.91,4.47-3.18S323.74,391.36,324.16,394.49Z" transform="translate(-6.4 -2.4)"/><path class="cls-4" d="M500.89,247.13c.79-1.07,1.49-3,2.65-3.33s2.94.75,4.1,1.67a6.31,6.31,0,0,1,1.68,3.18,96.3,96.3,0,0,1,2.88,11.84,5.54,5.54,0,0,1-2.14,4.36c-.67.47-2.77-.85-4.09-1.61a3.51,3.51,0,0,1-1.32-2C503.39,256.75,502.23,252.22,500.89,247.13Z" transform="translate(-6.4 -2.4)"/><path class="cls-4" d="M265,417.47a33.28,33.28,0,0,1-3.08,4.18c-1.68,1.78-3.67,3.25-5.48,4.9-2.65,2.43-5.8,2.4-8-.13-1.77-2-1.41-4.52,1.57-6.8a52.72,52.72,0,0,1,9.36-5.84C262.17,412.45,264.83,414.06,265,417.47Z" transform="translate(-6.4 -2.4)"/><path class="cls-4" d="M146.44,495.21c-1.46-2.1-2.94-3.36-3.27-4.88-.92-4.16-1.42-8.42-2-12.65-.33-2.58,1.81-4.7,4.16-3.65,2,.92,4.68,2.81,5.06,4.68a40.34,40.34,0,0,1,.13,12.17C150.4,492.21,148.31,493.32,146.44,495.21Z" transform="translate(-6.4 -2.4)"/><path class="cls-4" d="M366.07,355.34c1.78,1.28,3.63,2.46,5.32,3.85,2.84,2.33,5.58,4.78,8.35,7.19.76.67,1.83,1.24,2.17,2.09a6.07,6.07,0,0,1,.41,3.92c-.25.66-2.07.89-3.21,1a4.67,4.67,0,0,1-2.37-.53c-5.58-2.62-9.86-6.6-12.12-12.4-.5-1.28-.08-2.92-.08-4.4Z" transform="translate(-6.4 -2.4)"/><path class="cls-4" d="M141.47,397.14c.53-.9,1.07-2.86,1.92-3a5.41,5.41,0,0,1,4.16,1.4c4,4.16,3.77,9.7,4,14.94a3.23,3.23,0,0,1-3.59,3.39c-2,0-3.64-.72-4-2.95C143.1,406.5,142.34,402.09,141.47,397.14Z" transform="translate(-6.4 -2.4)"/><path class="cls-4" d="M485.63,133.12c-1.78-1.11-3.07-1.51-3.72-2.38-3.4-4.55-6.77-9.14-9.83-13.92-.67-1-.61-3.53.16-4.28s3.23-.84,4.31-.18c6.14,3.73,8.76,10,10.8,16.44C487.67,129.84,486.36,131.4,485.63,133.12Z" transform="translate(-6.4 -2.4)"/><path class="cls-4" d="M195.44,111.59c-3.63,2.12-6.78,3.94-9.91,5.79A5.57,5.57,0,0,1,178.4,116c-1.72-2.06-1.5-4.42.83-6.5A13.76,13.76,0,0,1,190,105.77C193.66,106.09,194.45,107,195.44,111.59Z" transform="translate(-6.4 -2.4)"/><path class="cls-4" d="M454,317.32c.94,5.05.81,5.75-2.65,7a43.22,43.22,0,0,1-9.47,2.37,7.18,7.18,0,0,1-4.94-1.61c-2.78-2.38-1.94-5.8,1.53-7A27.62,27.62,0,0,1,454,317.32Z" transform="translate(-6.4 -2.4)"/><path class="cls-4" d="M273.12,436.08a6,6,0,0,1-.87,1.79c-2.57,2.89-5.12,5.8-7.88,8.51-1.83,1.79-3.83.84-5.56-.44s-3.17-2.94-1.7-5.19c2.64-4,5.95-7.38,10.81-8.55C271.05,431.45,273.29,433.08,273.12,436.08Z" transform="translate(-6.4 -2.4)"/><path class="cls-4" d="M387.75,356c2.44.7,4.29.79,5.61,1.67,4.39,3,8.64,6.14,12.86,9.35a8.62,8.62,0,0,1,2.71,3.24,4.92,4.92,0,0,1,0,3.73c-.28.55-2.57.84-3.2.32-5.95-4.87-11.76-9.93-17.55-15C387.87,359.06,388,358.22,387.75,356Z" transform="translate(-6.4 -2.4)"/><path class="cls-4" d="M244.12,306.73a59.35,59.35,0,0,1-5.64-2.23c-1.85-1-3.55-2.3-3.06-4.8s2.5-2.22,4.3-2.65a42.11,42.11,0,0,0,6.32-2.26c1.88-.79,3.88-2.3,5.46.1s2.53,5.3.28,7.39S246.65,305.32,244.12,306.73Z" transform="translate(-6.4 -2.4)"/><path class="cls-4" d="M454.55,164.46c1.08-1.86,1.63-3.87,2.9-4.59.79-.44,3.08.72,4,1.78,3.13,3.51,6.42,7.11,6.68,12.14a5.66,5.66,0,0,1-1.81,4c-.49.42-2.64-.5-3.6-1.32a28.49,28.49,0,0,1-5-5.4A47.63,47.63,0,0,1,454.55,164.46Z" transform="translate(-6.4 -2.4)"/><path class="cls-4" d="M414.89,115.59a55,55,0,0,1,7.19,1c2,.52,4.09,2,3.27,4.3-.47,1.32-2.46,2.49-4,2.94a22.77,22.77,0,0,1-7.21.84c-1.93-.08-4.23-.48-5.62-1.63s-1.73-3.36-2.54-5.11a28.78,28.78,0,0,1,4.64-2,18.24,18.24,0,0,1,4.25-.07Z" transform="translate(-6.4 -2.4)"/><path class="cls-4" d="M180.42,143.11a7.56,7.56,0,0,1-.88,1.73q-2.7,3.32-5.56,6.52c-1.67,1.87-3.66,2.67-6,1.23a4.49,4.49,0,0,1-2-5.84,14.13,14.13,0,0,1,8.27-8.58C177.68,136.86,180.7,139.16,180.42,143.11Z" transform="translate(-6.4 -2.4)"/><path class="cls-4" d="M450.87,357.22c-5.36.2-13.87-7.09-14.77-12.16-.38-2.16.71-3.09,2.74-3a4.42,4.42,0,0,1,2.33.69c3.75,2.81,7.56,5.55,11,8.69.89.81.78,3,.62,4.48C452.74,356.53,451.27,357,450.87,357.22Z" transform="translate(-6.4 -2.4)"/><path class="cls-4" d="M287.22,603.41c.07-1.43.06-2.86.21-4.28.38-3.43,1.56-4.58,4.49-4.52,3.23.07,5.24,1.72,5.26,4.75a48.09,48.09,0,0,1-.7,7.93c-.5,3.13-2.58,4.58-5.59,4.36-3.36-.24-3.81-2.5-3.77-5.17,0-1,0-2.05,0-3.07Z" transform="translate(-6.4 -2.4)"/><path class="cls-4" d="M243.72,501.15c5.26,1.4,7.27,3.79,7.23,7.84,0,2.67-.06,5.34-.06,8s-.6,4.52-3.72,4.45c-2.82-.07-5.75-2.11-5.57-4.65C242,511.79,242.92,506.81,243.72,501.15Zm1.59,6.09.62.73c.1-.17.3-.35.29-.51a6.71,6.71,0,0,0-.26-1Z" transform="translate(-6.4 -2.4)"/><path class="cls-4" d="M205.73,464.82c-.79,4.52-1.23,8.19-2.16,11.73-.27,1-1.94,1.7-3,2.53-.73-1.09-2.07-2.16-2.1-3.28-.2-5.93-.13-11.88,0-17.82A3,3,0,0,1,200,455.7c.75-.24,2.39.21,2.65.8C203.94,459.39,204.88,462.42,205.73,464.82Z" transform="translate(-6.4 -2.4)"/><path class="cls-4" d="M448.4,209.84c.18,3.26-1.71,4.64-4.35,3.35-3.11-1.53-6.4-3-8.94-5.3-1.57-1.41-2.36-4.15-2.65-6.41a2.59,2.59,0,0,1,3.62-2.86c4.79,1.89,9.18,4.5,11.65,9.35A11.6,11.6,0,0,1,448.4,209.84Z" transform="translate(-6.4 -2.4)"/><path class="cls-4" d="M215.75,517c2.81,1.2,4.47,1.51,5.58,2.47,3,2.59,4.16,13,2,16.28a3.44,3.44,0,0,1-5.29.86,7.2,7.2,0,0,1-2.2-4.18C215.58,527.77,215.75,523.11,215.75,517Z" transform="translate(-6.4 -2.4)"/><path class="cls-4" d="M288.39,570.35c0-1.44,0-2.88,0-4.32-.07-2.57.56-4.5,3.67-4.46,2.7,0,5.1,1.75,5.11,4.3a87,87,0,0,1-.8,11,4,4,0,0,1-4.3,3.58c-2.54,0-3.63-1.58-3.66-4C288.38,574.45,288.39,572.4,288.39,570.35Z" transform="translate(-6.4 -2.4)"/><path class="cls-4" d="M143.67,242.26c4.8,2.13,6.24,5.8,5.72,10.1-.55,4.47-.79,9.42-6.19,11.49C140.91,259.55,141.15,246.92,143.67,242.26Z" transform="translate(-6.4 -2.4)"/><path class="cls-4" d="M494.66,202.42c1.18-1.6,1.77-3.23,2.78-3.56s3.33.18,3.69,1a141.4,141.4,0,0,1,5.77,14.57c.29.84-.91,2.85-1.88,3.26s-3.15-.2-3.58-1C499,212,496.92,207.25,494.66,202.42Z" transform="translate(-6.4 -2.4)"/><path class="cls-4" d="M163.3,208.58c3.17.81,5.62,2.55,5.46,5.39A27.56,27.56,0,0,1,166,223.8c-.41.88-3.39,1.1-5,.75a4.48,4.48,0,0,1-3.48-4.51C157.36,216.53,158.89,213.22,163.3,208.58Z" transform="translate(-6.4 -2.4)"/><path class="cls-4" d="M306.9,374.17c-3.59-.16-5.64-1.95-5.72-5.27-.11-4,.26-8,.42-11.92,6.63-.83,8.63.54,8.48,5.88C310,366.82,310.13,371.05,306.9,374.17Z" transform="translate(-6.4 -2.4)"/><path class="cls-4" d="M141.09,367.39a54.28,54.28,0,0,1,.69-6.65c.66-3,3.19-3.94,5.41-1.91,1.22,1.13,2.5,3,2.46,4.55A40.6,40.6,0,0,1,148,374.12c-.36,1.17-2.79,2.16-4.35,2.29-.67,0-1.92-2.19-2.23-3.55a25.46,25.46,0,0,1-.09-5.46Z" transform="translate(-6.4 -2.4)"/><path class="cls-4" d="M233.22,438.33c-1.29,3.06-2.62,6.71-4.42,10.11-.4.76-2.8,1.3-3.64.82-1.64-.93-3.5-2.43-4-4.1-.91-2.75,3.5-10,6.23-11.29S233.22,434.53,233.22,438.33Z" transform="translate(-6.4 -2.4)"/><path class="cls-4" d="M440.52,123c2.11-1.07,3.37-2.3,4.32-2.09,4.79,1,9.65,2.32,13.07,6.14a8.13,8.13,0,0,1,1.67,4.94c.05,2-1.49,2.78-3.44,1.94-3.15-1.37-6.5-2.47-9.33-4.33C444.59,128.17,443,125.73,440.52,123Z" transform="translate(-6.4 -2.4)"/><path class="cls-4" d="M250.17,351.06c2.65.17,4.61,1.09,5.33,3.63.64,2.27-1.08,3.37-2.72,4.25a40.67,40.67,0,0,1-6.13,2.79,8.33,8.33,0,0,1-8.59-1.74c-1.86-1.69-1.69-4.12.55-5C242.37,353.41,246.31,352.33,250.17,351.06ZM245,356l.33.87,1.55-1.06-.3-.48Z" transform="translate(-6.4 -2.4)"/><path class="cls-4" d="M153.87,557.7a6.61,6.61,0,0,1,0-2.44c.75-1.75,1.74-3.41,2.64-5.11,1.82,1.1,4.74,1.83,5.25,3.36a25.77,25.77,0,0,1,.86,10.1c-.11,1.17-2.55,2.91-4,3s-3.24-1.55-3.95-2.91c-.88-1.71-.8-3.93-1.13-5.92Z" transform="translate(-6.4 -2.4)"/><path class="cls-4" d="M145.66,277.5c1.24,1.65,3.34,3.21,3.54,5a36.38,36.38,0,0,1-.6,10.86c-.27,1.43-2.13,2.84-3.6,3.62-.6.32-3-1-3.05-1.66-.4-5.85-.33-11.7,1.87-17.21Z" transform="translate(-6.4 -2.4)"/><path class="cls-4" d="M276.66,370.65c2.56-5.48,5-10.63,7.39-15.82,4.77.05,6.36,1.48,5.13,5.41a48.26,48.26,0,0,1-4.48,10.07C282.75,373.61,281.27,373.55,276.66,370.65Z" transform="translate(-6.4 -2.4)"/><path class="cls-4" d="M208.82,418.57c5.27,2.93,5.7,4.19,2.6,8.74a74,74,0,0,1-5.58,7.26c-.68.78-2.43,1.6-3,1.26a4.92,4.92,0,0,1-2.09-3.21C200.15,427.93,203.54,422.28,208.82,418.57Z" transform="translate(-6.4 -2.4)"/><path class="cls-4" d="M478.24,164.36c-.92-.35-1.73-.39-2-.79-3-4.59-6-9.19-8.73-13.92-.48-.82-.32-2.93.21-3.22a4.82,4.82,0,0,1,3.85-.28c4.76,2.38,6.4,7.2,8.4,11.65a4.58,4.58,0,0,1,.24,3A18.93,18.93,0,0,1,478.24,164.36Z" transform="translate(-6.4 -2.4)"/><path class="cls-4" d="M261.21,376.54c-2.33-1.24-4.35-1.85-5.7-3.15-1.67-1.61-1.71-3.75.48-5.25a52.32,52.32,0,0,1,5.76-3.54c2.41-1.23,4.83-1.13,6.61,1.19s1,4.4-.8,6A76.94,76.94,0,0,1,261.21,376.54Z" transform="translate(-6.4 -2.4)"/><path class="cls-4" d="M200.38,584.16c4.34-1.4,6.65,0,7.62,2.75a73.13,73.13,0,0,1,2.95,11.9c.2,1.14-.92,2.51-1.78,4.62C202.28,598.19,202.52,590.83,200.38,584.16Z" transform="translate(-6.4 -2.4)"/><path class="cls-4" d="M215.93,99.34c4.58-.41,7.92-.68,9.75,3,.79,1.58,1,3.09-.79,4.27-3,2-11.41,1.56-14-1-1-1-2-2.92-1.78-4.17.18-.91,2.37-1.66,3.77-2A9,9,0,0,1,215.93,99.34Z" transform="translate(-6.4 -2.4)"/><path class="cls-4" d="M180.05,288c5,1.76,9.85,3.44,13.6,7a4.06,4.06,0,0,1,.85,3.73c-.39.78-2.61,1.42-3.57,1a114.82,114.82,0,0,1-12.52-6.1c-.84-.48-1.25-2.51-1.07-3.7C177.47,289.19,179.05,288.66,180.05,288Z" transform="translate(-6.4 -2.4)"/><path class="cls-4" d="M221.76,599.68a10.8,10.8,0,0,1,.2-3c.43-1.23,1.44-3.36,1.89-3.28,1.62.28,4.18,1,4.46,2.12a63.7,63.7,0,0,1,1.57,12,3.32,3.32,0,0,1-2.25,2.39c-1.21.08-3.19-.54-3.61-1.44a68,68,0,0,1-2.83-8.52Z" transform="translate(-6.4 -2.4)"/><path class="cls-4" d="M234.84,116.71c1-.12,2.58-.45,4.21-.53,3-.15,4.73,1.35,5.09,4.12s-1.71,3.59-3.55,4.33c-3.83,1.52-9.22.16-11.18-2.87a5.47,5.47,0,0,1-.74-3.92c.18-.68,1.94-1.09,3.05-1.36A12.46,12.46,0,0,1,234.84,116.71Z" transform="translate(-6.4 -2.4)"/><path class="cls-4" d="M346,364.62c.24-2.67,1.85-3.77,3.8-3.11a9.13,9.13,0,0,1,4.8,3.47,28.68,28.68,0,0,1,2.77,8.09c.21.94-.46,2.73-1.2,3.06-1.1.5-3.08.58-3.9-.11C348.66,373,347.15,368.72,346,364.62Z" transform="translate(-6.4 -2.4)"/><path class="cls-4" d="M239.12,547c0-1,.06-2.05.15-3.07.17-1.79-.11-4.27,2.36-4.25A6.16,6.16,0,0,1,246.2,542c2.17,3.51,1.58,7.53.46,11.29-.22.73-2.23,1.61-3,1.34a8.22,8.22,0,0,1-4.22-2.9c-.75-1.22-.36-3.16-.47-4.78Z" transform="translate(-6.4 -2.4)"/><path class="cls-4" d="M216.57,558.06c.35-.84.71-3.95,2.07-4.47,2.93-1.13,4,1.95,5,4.13a51.38,51.38,0,0,1,1.75,5.21c.82,2.5.31,4.53-2.37,5.38a4.61,4.61,0,0,1-5.69-3.4C216.85,563.15,216.89,561.26,216.57,558.06Z" transform="translate(-6.4 -2.4)"/><path class="cls-4" d="M248.7,341c-.77-.11-2.24.09-3.11-.54-1.52-1.09-3.39-2.5-3.82-4.12-.7-2.57,1.79-3.19,3.8-3.68a19.27,19.27,0,0,1,3.56-.74c3.09-.16,5.87,2.06,6.11,4.71S253,341,248.7,341Z" transform="translate(-6.4 -2.4)"/><path class="cls-4" d="M141.11,217.41a10.9,10.9,0,0,1,.27-2.4c.65-1.58,1.07-4.08,2.19-4.46,2.5-.87,4.34,1.19,5,3.43a15.48,15.48,0,0,1,.42,7.14c-.3,1.33-2.33,3-3.76,3.18-2.24.33-3.76-1.23-3.78-3.79C141.38,219.29,141.17,218.06,141.11,217.41Z" transform="translate(-6.4 -2.4)"/><circle class="cls-5" cx="216.98" cy="239.85" r="45.94"/><circle class="cls-6" cx="216.98" cy="239.85" r="25.76"/><circle class="cls-5" cx="227.8" cy="229.04" r="5.67"/><circle class="cls-5" cx="413.53" cy="248.53" r="37.27"/><circle class="cls-6" cx="413.53" cy="248.53" r="20.9"/><circle class="cls-5" cx="422.3" cy="239.76" r="4.6"/><path class="cls-2" d="M156.86,196.65S203.37,145.57,274,175.38l15.6-47.25S170.57,115.59,156.86,196.65Z" transform="translate(-6.4 -2.4)"/><path class="cls-2" d="M465.4,208.64s-25.8-37.76-97.27-19l-5-29.89S461.52,140.76,465.4,208.64Z" transform="translate(-6.4 -2.4)"/><path class="cls-7" d="M369.88,61.54l-102.3,4.57a15,15,0,0,0-14.3,15.15c.82,71.4,0,131.73,1.05,204.72.22,15.11.78,31.29,9.67,43.5,12.91,17.73,37.84,20.37,59.74,21.46s47.43.48,60.41-17.11c7.48-10.13,8.61-23.46,9.35-36,5.06-85.37-1.65-140.45-8-222.43A15,15,0,0,0,369.88,61.54Z" transform="translate(-6.4 -2.4)"/><path class="cls-5" d="M330.41,387.86a192.42,192.42,0,0,1-60.59-9.74,60.62,60.62,0,0,0,121.18,0A192.37,192.37,0,0,1,330.41,387.86Z" transform="translate(-6.4 -2.4)"/><path class="cls-8" d="M300,260.85A86.17,86.17,0,0,0,286.3,301c-.08.93-.14,1.85-.18,2.78-.66,13.1,19.07,14.71,20.55,1.67q.15-1.38.27-2.76A86.37,86.37,0,0,0,300,260.85Z" transform="translate(-6.4 -2.4)"/><path class="cls-8" d="M346.54,254.35a104.4,104.4,0,0,0-5.7,51c.16,1.11.32,2.22.51,3.32,2.64,15.67,26.38,12.43,24.73-3.37-.11-1.11-.25-2.23-.4-3.34A104.33,104.33,0,0,0,346.54,254.35Z" transform="translate(-6.4 -2.4)"/><path class="cls-2" d="M131.7,578.73l-1.26-52.12c-.24-10.26-10.88-17.17-20.22-12.92s-17.49,13-22.19,24.38A323.34,323.34,0,0,0,131.7,578.73Z" transform="translate(-6.4 -2.4)"/></svg>